<svg width="610" height="580" viewBox="0 0 610 580" fill="none" xmlns="http://www.w3.org/2000/svg">
  <path opacity="0.33" fill-rule="evenodd" clip-rule="evenodd" d="M339.984 233.497C332.225 255.38 320.236 275.26 305 292.156C289.764 275.26 277.775 255.38 270.016 233.497C281.32 231.204 293.019 230 305 230C316.981 230 328.68 231.204 339.984 233.497Z" fill="#F7F4F1"/>
  <path opacity="0.33" fill-rule="evenodd" clip-rule="evenodd" d="M270.016 233.497C209.486 245.778 160.298 289.301 140.016 346.502C151.32 348.796 163.019 350 175 350C226.593 350 272.971 327.674 305 292.156C289.764 275.26 277.775 255.379 270.016 233.497Z" fill="#F7F4F1"/>
  <path opacity="0.33" fill-rule="evenodd" clip-rule="evenodd" d="M339.984 233.497C346.47 215.205 350 195.515 350 175C350 129.943 332.972 88.8625 305 57.8438C277.028 88.8625 260 129.943 260 175C260 195.515 263.53 215.205 270.016 233.497C281.32 231.204 293.019 230 305 230C316.981 230 328.68 231.204 339.984 233.497Z" fill="#F7F4F1"/>
  <path opacity="0.33" fill-rule="evenodd" clip-rule="evenodd" d="M305 292.156C337.029 327.674 383.407 350 435 350C446.981 350 458.68 348.796 469.984 346.502C449.702 289.301 400.514 245.778 339.984 233.497C332.225 255.379 320.236 275.26 305 292.156Z" fill="#F7F4F1"/>
  <path opacity="0.33" fill-rule="evenodd" clip-rule="evenodd" d="M339.984 233.497C315.914 301.381 251.135 350 175 350C163.019 350 151.32 348.796 140.016 346.503C164.086 278.619 228.865 230 305 230C316.981 230 328.68 231.204 339.984 233.497Z" fill="#F7F4F1"/>
  <path opacity="0.33" fill-rule="evenodd" clip-rule="evenodd" d="M270.016 233.497C281.32 231.204 293.019 230 305 230C381.135 230 445.914 278.619 469.984 346.503C458.68 348.796 446.981 350 435 350C358.865 350 294.086 301.381 270.016 233.497Z" fill="#F7F4F1"/>
  <path opacity="0.33" fill-rule="evenodd" clip-rule="evenodd" d="M305 292.156C332.972 261.137 350 220.057 350 175C350 129.943 332.972 88.8625 305 57.8438C277.028 88.8625 260 129.943 260 175C260 220.057 277.028 261.137 305 292.156Z" fill="#F7F4F1"/>
  <path opacity="0.33" fill-rule="evenodd" clip-rule="evenodd" d="M339.984 233.497C400.514 245.778 449.702 289.301 469.984 346.503C549.87 330.294 610 259.669 610 175C610 78.3502 531.65 0 435 0C383.407 0 337.029 22.3261 305 57.8441C332.972 88.8628 350 129.943 350 175C350 195.515 346.47 215.206 339.984 233.497Z" fill="#F7F4F1"/>
  <path opacity="0.33" fill-rule="evenodd" clip-rule="evenodd" d="M469.984 346.503C458.68 348.796 446.981 350 435 350C383.408 350 337.03 327.674 305 292.156C272.971 327.674 226.593 350.001 175 350.001C163.019 350.001 151.32 348.797 140.016 346.503C133.53 364.795 130 384.486 130 405.001C130 501.651 208.35 580.001 305 580.001C401.65 580.001 480 501.651 480 405.001C480 384.485 476.47 364.795 469.984 346.503Z" fill="#F7F4F1"/>
  <path opacity="0.33" fill-rule="evenodd" clip-rule="evenodd" d="M260 175C260 129.943 277.028 88.8628 305 57.8441C272.971 22.3261 226.593 0 175 0C78.3502 0 0 78.3502 0 175C0 259.669 60.1296 330.294 140.016 346.503C160.298 289.301 209.486 245.779 270.016 233.497C263.53 215.206 260 195.515 260 175Z" fill="#F7F4F1"/>
  <circle opacity="0.33" cx="435" cy="175" r="175" fill="#F7F4F1"/>
  <circle opacity="0.33" cx="305" cy="405" r="175" fill="#F7F4F1"/>
  <circle opacity="0.33" cx="175" cy="175" r="175" fill="#F7F4F1"/>
</svg>
